<?xml version="1.0" standalone="no"?>
<!DOCTYPE svg PUBLIC "-//W3C//DTD SVG 20010904//EN"
 "http://www.w3.org/TR/2001/REC-SVG-20010904/DTD/svg10.dtd">
<svg version="1.0" xmlns="http://www.w3.org/2000/svg"
 width="1188.000000pt" height="1188.000000pt" viewBox="0 0 1188.000000 1188.000000"
 preserveAspectRatio="xMidYMid meet">
<metadata>
Created by potrace 1.14, written by Peter Selinger 2001-2017
</metadata>
<g transform="translate(0.000000,1188.000000) scale(0.100000,-0.100000)"
fill="#000000" stroke="none">
<path d="M0 5940 l0 -5940 5940 0 5940 0 0 5940 0 5940 -5940 0 -5940 0 0
-5940z m9870 -50 l0 -3880 -3880 0 -3880 0 0 3880 0 3880 3880 0 3880 0 0
-3880z"/>
<path d="M2270 6790 l0 -2820 3720 0 3720 0 0 2820 0 2820 -3720 0 -3720 0 0
-2820z m2120 1500 l0 -200 -200 0 -200 0 0 200 0 200 200 0 200 0 0 -200z
m3600 0 l0 -200 -200 0 -200 0 0 200 0 200 200 0 200 0 0 -200z m-1825 -340
c384 -43 677 -262 779 -580 13 -41 27 -96 31 -122 l7 -48 -129 0 -130 0 -17
62 c-28 101 -73 176 -156 258 -82 82 -173 134 -290 167 -93 25 -367 25 -460 0
-211 -59 -369 -191 -470 -396 -76 -152 -110 -318 -110 -536 0 -486 194 -803
555 -907 107 -30 363 -33 465 -5 244 69 438 270 501 520 l11 47 129 0 c151 0
143 10 103 -126 -115 -402 -434 -663 -857 -704 -197 -19 -438 18 -602 94 -98
45 -155 85 -243 170 -202 194 -311 454 -330 786 -27 452 82 795 332 1046 123
123 247 193 420 240 146 38 310 51 461 34z m-1775 -2660 l0 -200 -200 0 -200
0 0 200 0 200 200 0 200 0 0 -200z m3600 0 l0 -200 -200 0 -200 0 0 200 0 200
200 0 200 0 0 -200z"/>
<path d="M2270 2990 l0 -820 3720 0 3720 0 0 820 0 820 -3720 0 -3720 0 0
-820z m1950 392 c37 -18 66 -43 89 -74 l35 -47 28 38 c56 76 142 116 248 115
146 -1 243 -73 285 -210 12 -39 15 -116 15 -366 l0 -318 -70 0 -70 0 0 298 c0
163 -5 315 -10 336 -17 75 -73 126 -147 136 -107 13 -177 -22 -221 -110 l-27
-55 -3 -302 -4 -303 -68 0 -69 0 -3 328 -3 329 -28 42 c-34 52 -80 73 -158 73
-88 0 -147 -42 -188 -132 -19 -42 -21 -65 -21 -342 l0 -298 -70 0 -70 0 0 435
0 435 70 0 70 0 0 -47 0 -47 38 36 c40 38 88 66 137 79 54 14 156 1 215 -29z
m1343 28 c198 -32 315 -178 333 -417 l7 -83 -342 0 c-386 0 -352 9 -327 -87
36 -136 123 -205 257 -205 93 0 165 33 206 93 17 24 33 54 37 67 7 20 13 22
81 22 l74 0 -15 -42 c-51 -145 -162 -235 -317 -257 -142 -20 -288 26 -368 117
-162 184 -157 506 12 682 54 56 112 89 189 106 69 16 100 16 173 4z m1027 -28
c36 -18 67 -44 89 -74 l35 -46 26 37 c105 145 353 157 470 23 73 -82 80 -125
80 -488 l0 -314 -70 0 -70 0 0 290 c0 171 -4 310 -11 340 -20 94 -80 140 -182
142 -75 1 -126 -20 -159 -65 -51 -70 -52 -73 -56 -399 l-4 -308 -69 0 -69 0 0
309 c0 206 -4 319 -12 342 -28 84 -83 121 -178 121 -69 0 -106 -18 -152 -72
-55 -63 -58 -87 -58 -409 l0 -291 -75 0 -75 0 0 435 0 435 75 0 75 0 0 -47 0
-47 38 36 c40 38 88 66 137 79 54 15 156 1 215 -29z m1456 7 c127 -48 232
-193 255 -353 40 -271 -112 -502 -353 -535 -226 -31 -415 95 -473 314 -19 73
-19 213 -1 280 44 166 168 287 322 315 70 12 187 2 250 -21z m-4536 -68 l0
-59 -346 -153 c-332 -148 -344 -154 -317 -166 15 -7 170 -76 343 -152 l315
-140 3 -57 c2 -31 -1 -60 -5 -64 -4 -4 -197 77 -428 180 l-420 188 0 58 0 58
420 187 c231 103 423 185 428 182 4 -2 7 -30 7 -62z m5420 -139 l375 -167 0
-58 0 -59 -420 -188 c-231 -103 -424 -184 -428 -180 -4 4 -7 33 -5 64 l3 57
315 140 c173 76 328 145 343 152 27 12 14 18 -317 166 l-346 153 0 57 c0 32 3
60 6 63 7 8 11 6 474 -200z"/>
<path d="M5430 3291 c-93 -20 -172 -100 -194 -196 -4 -16 -9 -38 -12 -47 -5
-17 12 -18 264 -18 l270 0 -12 53 c-24 102 -68 162 -141 193 -40 16 -132 24
-175 15z"/>
<path d="M7815 3291 c-82 -20 -150 -87 -186 -180 -17 -44 -22 -78 -22 -156 0
-78 5 -112 22 -156 45 -118 132 -181 251 -181 115 -1 198 53 249 162 23 50 26
67 26 175 0 116 -1 123 -33 188 -60 121 -180 179 -307 148z"/>
</g>
</svg>
